# xmcd
#
# Track frame offsets:
#	150
#	16782
#	28635
#	40975
#	52245
#	65332
#	76137
#	82410
#	94660
#	105172
#	114862
#	128185
#	139645
#	151477
#	161150
#	169445
#	183620
#	203270
#	215412
#	227012
#	235857
#	248530
#	258660
#	271410
#	281517
#	294152
#	307805
#	315697
#	328725
#	341757
#
# Disc length: 4696 seconds
#
# Revision: 0
# Processed by: cddbd v1.4PL0 Copyright (c) Steve Scherf et al.
# Submitted via: MusicWizard 6.0.2
#
DISCID=a212561e
DTITLE=Various Artist - Golden Country Hits
DYEAR=1989
DGENRE=Country
TTITLE0=Kenny Rogers - Lucille
TTITLE1=Johnny Cash - Ring Of Fire
TTITLE2=Bobby Bare - 500 Miles Away From Home
TTITLE3=Charly Pride - Help Me Make It Through The Night
TTITLE4=Dolly Parton - Here You Come Again
TTITLE5=Bobby Sykes - On Top Of Old Smokey
TTITLE6=The Cattlemen - The Yellow Rose Of Texas
TTITLE7=Charlie Rich - The Most Beautiful Girl
TTITLE8=Crystal Gayle - Wrong Road Again
TTITLE9=Floyd Cramer - Jambalaya
TTITLE10=Ronnie Milsap - Behind Closed Doors
TTITLE11=Don Gibson - Oh, Lonesome Me
TTITLE12=Jim Reeves - Welcome To My World
TTITLE13=Jerry Reed - King Of The Road
TTITLE14=The Cattlemen - Red River Valley
TTITLE15=Johnny Cash - Orange Blossom Special
TTITLE16=Kenny Rogers - Coward Of The Country
TTITLE17=Dickey Lee - Never Ending Song Of Love
TTITLE18=Billie Jo Spears - Stand By Your Man
TTITLE19=Don Reno and Bobby Thompson - Foggy Mountain Breakdown
TTITLE20=Hank Snow - I'm Movin' On
TTITLE21=George Hamilton IV - Abilene
TTITLE22=Anne Murray - Tennessee Waltz
TTITLE23=Charly Pride - Then Who Am I
TTITLE24=Frank Saunders - Home On The Range
TTITLE25=Dolly Parton - Joshua
TTITLE26=Gene Martin - San Antonio Rose
TTITLE27=The Browns - The Three Bells
TTITLE28=Bobby Bare - Detroit City
TTITLE29=Jim Reeves - He'll Have To Go
EXTD=
EXTT0=
EXTT1=
EXTT2=
EXTT3=
EXTT4=
EXTT5=
EXTT6=
EXTT7=
EXTT8=
EXTT9=
EXTT10=
EXTT11=
EXTT12=
EXTT13=
EXTT14=
EXTT15=
EXTT16=
EXTT17=
EXTT18=
EXTT19=
EXTT20=
EXTT21=
EXTT22=
EXTT23=
EXTT24=
EXTT25=
EXTT26=
EXTT27=
EXTT28=
EXTT29=
PLAYORDER=
